<?xml version="1.0" encoding="UTF-8" standalone="no"?>
<!-- Created with Inkscape (http://www.inkscape.org/) -->

<svg
   xmlns:dc="http://purl.org/dc/elements/1.1/"
   xmlns:cc="http://creativecommons.org/ns#"
   xmlns:rdf="http://www.w3.org/1999/02/22-rdf-syntax-ns#"
   xmlns:svg="http://www.w3.org/2000/svg"
   xmlns="http://www.w3.org/2000/svg"
   xmlns:sodipodi="http://sodipodi.sourceforge.net/DTD/sodipodi-0.dtd"
   xmlns:inkscape="http://www.inkscape.org/namespaces/inkscape"
   width="210mm"
   height="297mm"
   viewBox="0 0 744.09448819 1052.3622047"
   id="svg2"
   version="1.1"
   inkscape:version="0.91 r13725"
   sodipodi:docname="rockTrack.svg">
  <defs
     id="defs4" />
  <sodipodi:namedview
     id="base"
     pagecolor="#ffffff"
     bordercolor="#666666"
     borderopacity="1.0"
     inkscape:pageopacity="0.0"
     inkscape:pageshadow="2"
     inkscape:zoom="0.7845001"
     inkscape:cx="347.37478"
     inkscape:cy="593.35065"
     inkscape:document-units="px"
     inkscape:current-layer="layer1"
     showgrid="false"
     inkscape:window-width="1366"
     inkscape:window-height="705"
     inkscape:window-x="-8"
     inkscape:window-y="-8"
     inkscape:window-maximized="1" />
  <metadata
     id="metadata7">
    <rdf:RDF>
      <cc:Work
         rdf:about="">
        <dc:format>image/svg+xml</dc:format>
        <dc:type
           rdf:resource="http://purl.org/dc/dcmitype/StillImage" />
        <dc:title></dc:title>
      </cc:Work>
    </rdf:RDF>
  </metadata>
  <g
     inkscape:label="Layer 1"
     inkscape:groupmode="layer"
     id="layer1">
    <path
       style="fill:#800080;fill-rule:evenodd;stroke:#000000;stroke-width:1px;stroke-linecap:butt;stroke-linejoin:miter;stroke-opacity:1"
       d="M 139.059,221.33137 C 312.91213,61.209624 485.88205,118.57357 548.34896,172.51759 669.21314,301.31602 726.0169,701.69985 639.03585,775.07341 556.43909,849.70901 205.9309,756.37156 57.07663,612.01089 -6.5799097,540.18657 -19.692052,365.14728 139.059,221.33137 Z"
       id="path3347"
       inkscape:connector-curvature="0"
       sodipodi:nodetypes="ccccc" />
    <text
       xml:space="preserve"
       style="font-style:normal;font-variant:normal;font-weight:normal;font-stretch:normal;font-size:277.26751709px;line-height:125%;font-family:'Liberation Sans';-inkscape-font-specification:'Liberation Sans, Normal';text-align:start;letter-spacing:0px;word-spacing:0px;writing-mode:lr-tb;text-anchor:start;fill:#ffff00;fill-opacity:1;stroke:none;stroke-width:1px;stroke-linecap:butt;stroke-linejoin:miter;stroke-opacity:1"
       x="238.3452"
       y="258.12845"
       id="text3353"
       sodipodi:linespacing="125%"
       transform="matrix(0.92778525,0.48123804,-0.44054268,0.84932812,0,0)"><tspan
         sodipodi:role="line"
         id="tspan3355"
         x="238.3452"
         y="258.12845">rock</tspan></text>
    <g
       transform="matrix(0.69996513,0.35792819,-0.3092819,0.60483235,163.12903,138.34419)"
       style="font-style:normal;font-variant:normal;font-weight:normal;font-stretch:normal;font-size:291.52398682px;line-height:125%;font-family:'Liberation Sans';-inkscape-font-specification:'Liberation Sans, Normal';text-align:start;letter-spacing:0px;word-spacing:0px;writing-mode:lr-tb;text-anchor:start;fill:#ffff00;fill-opacity:1;stroke:none;stroke-width:1px;stroke-linecap:butt;stroke-linejoin:miter;stroke-opacity:1"
       id="text3353-4">
      <path
         style="font-style:normal;font-variant:normal;font-weight:normal;font-stretch:condensed;font-size:291.52398682px;line-height:125%;font-family:Impact;-inkscape-font-specification:'Impact, Condensed';text-align:start;writing-mode:lr-tb;text-anchor:start;fill:#ffff00"
         d="m 196.24455,348.84 2.76928,65.09735 -35.58642,0 2.81871,275.82297 c -23.22129,-7.25347 -40.72951,-19.74595 -55.48817,-34.75983 L 67.036614,414.94879 -7.1455176,414.68607 -13.106448,341.26471 Z"
         id="path3381"
         inkscape:connector-curvature="0"
         sodipodi:nodetypes="ccccccccc" />
      <path
         d="m 214.06614,349.8109 46.92991,-1.71174 c 28.26531,-1.03095 54.51913,5.48794 54.51913,5.48794 33.87614,8.30722 35.16233,28.28294 35.16233,28.28294 6.35811,8.92033 5.17355,21.56961 5.17355,41.21332 0,17.93556 -11.59716,37.63828 -16.05733,43.80659 -4.46017,6.16831 -13.23815,9.8693 -26.33395,11.10296 11.86214,2.94181 19.8335,6.88004 23.91407,11.81469 4.08058,4.93465 6.59536,9.48972 7.54433,13.66519 1.04387,4.08058 1.5658,15.42079 1.5658,34.02062 l -9.02511,182.05641 -52.49063,-4.97927 5.85857,-192.87751 c 0.37449,-12.32901 -0.99642,-19.97585 -2.98926,-22.91766 -1.89794,-2.94181 -6.97494,-4.41271 -15.23099,-4.41271 l -6.94628,217.74619 -56.44673,-10.34087 z m 58.54042,57.4362 0,51.24445 c 6.7377,0 21.46244,0.0532 21.46244,0.0532 0,0 7.63927,-8.18634 10.38994,-17.82843 l 3.80519,-13.33854 c 1.97945,-6.9387 -0.53425,-14.94253 -3.19137,-17.22006 -2.56222,-2.27753 -25.53871,-2.91058 -32.4662,-2.91058 z"
         style="font-style:normal;font-variant:normal;font-weight:normal;font-stretch:condensed;font-size:291.52398682px;line-height:125%;font-family:Impact;-inkscape-font-specification:'Impact, Condensed';text-align:start;writing-mode:lr-tb;text-anchor:start;fill:#ffff00"
         id="path3383"
         inkscape:connector-curvature="0"
         sodipodi:nodetypes="csccsscscsccsccccccccssccc" />
      <path
         d="m 470.32845,356.939 30.32847,353.10914 -54.90524,4.46652 -2.47263,-157.66223 -21.4942,0 -8.67599,161.41997 -60.28207,-0.0186 38.03118,-365.58628 z M 441.5709,515.99921 c -3.03671,-26.09671 -6.07342,-58.31428 -9.11013,-96.65273 -6.07341,44.03227 -9.8693,76.24985 -11.38765,96.65273 z"
         style="font-style:normal;font-variant:normal;font-weight:normal;font-stretch:condensed;font-size:291.52398682px;line-height:125%;font-family:Impact;-inkscape-font-specification:'Impact, Condensed';text-align:start;writing-mode:lr-tb;text-anchor:start;fill:#ffff00"
         id="path3385"
         inkscape:connector-curvature="0"
         sodipodi:nodetypes="ccccccccccccc" />
      <path
         d="m 666.92055,508.85793 -73.33623,-7.31869 -3.66031,-55.24096 c -1.06435,-16.06298 -2.53923,-26.13449 -4.42465,-30.21454 -1.77795,-4.19906 -5.33791,-6.56514 -10.6799,-7.09825 -6.03876,-0.60265 -9.71097,1.43087 -11.01663,6.10058 -1.30565,4.66969 -1.42631,15.03603 -0.36197,31.099 l 9.76082,147.30925 c 1.02108,15.41002 2.50029,25.54684 4.43762,30.41045 1.93734,4.86361 5.7512,7.57935 11.44158,8.14722 5.45812,0.54471 8.84433,-1.4525 10.15864,-5.99161 1.43045,-4.52751 1.57023,-15.47572 0.41935,-32.84463 l -2.63491,-39.76568 73.33624,7.31869 0.81773,12.34107 c 2.17195,32.77892 1.62187,55.81592 -1.65024,69.111 -3.15597,13.30668 -11.47609,24.4115 -24.96036,33.31446 -13.36816,8.91455 -30.2007,15.16269 -50.63206,19.34093 -19.65514,4.01951 -56.37199,18.2698 -70.88739,8.12933 -14.51539,-10.14049 -13.50171,-22.43294 -15.53886,-44.51436 -5.55881,-15.99259 -7.46619,-69.63838 -9.52566,-100.71958 l -6.13944,-92.65597 c -1.51431,-22.85383 -1.9511,-39.89201 -1.31037,-51.11456 0.63207,-11.35313 4.0235,-21.97685 10.17428,-31.87114 6.2669,-9.88269 15.29817,-17.21923 27.0938,-22.00964 11.90309,-4.90942 25.80956,-6.57026 41.71941,-4.98251 21.60022,2.15563 44.57949,-2.82862 59.25428,7.97641 14.67479,10.80504 20.26817,26.09414 25.61566,40.6386 5.33884,14.41388 8.5664,45.29339 10.53068,74.93808 z"
         style="font-style:normal;font-variant:normal;font-weight:normal;font-stretch:condensed;font-size:291.52398682px;line-height:125%;font-family:Impact;-inkscape-font-specification:'Impact, Condensed';text-align:start;writing-mode:lr-tb;text-anchor:start;fill:#ffff00"
         id="path3387"
         inkscape:connector-curvature="0"
         sodipodi:nodetypes="ccscsssssscsccsccsscsscccsscsc" />
      <path
         style="font-style:normal;font-variant:normal;font-weight:normal;font-stretch:condensed;font-size:291.52398682px;line-height:125%;font-family:Impact;-inkscape-font-specification:'Impact, Condensed';text-align:start;writing-mode:lr-tb;text-anchor:start;fill:#ffff00"
         d="m 885.05273,344.14453 c -39.84048,3.27677 -79.68102,6.55294 -119.52148,9.83008 -7.91783,29.1319 -15.83878,58.26295 -23.75781,87.39453 0.48779,-28.62565 0.97426,-57.25132 1.46289,-85.87695 -22.52344,0.016 -45.04688,0.027 -67.57031,0.043 2.38201,105.38743 4.77066,210.77471 7.15429,316.16211 18.36979,-7.80558 36.7406,-15.60875 55.11133,-23.41211 1.0815,-45.06053 2.16133,-90.1211 3.24219,-135.18164 11.22464,40.77668 22.44904,81.55343 33.67383,122.33007 17.95404,-10.85045 35.9111,-21.6959 53.86718,-32.54297 -12.82242,-43.5351 -25.6445,-87.07032 -38.46679,-130.60546 33.10816,-42.83717 66.2156,-85.67491 99.32422,-128.51172 -1.50651,0.1237 -3.01303,0.24739 -4.51954,0.37109 z"
         id="path3389"
         inkscape:connector-curvature="0" />
    </g>
  </g>
</svg>
